<?xml version="1.0" standalone="no"?>
<!DOCTYPE svg PUBLIC "-//W3C//DTD SVG 20010904//EN"
 "http://www.w3.org/TR/2001/REC-SVG-20010904/DTD/svg10.dtd">
<svg version="1.0" xmlns="http://www.w3.org/2000/svg"
 width="700.000000pt" height="700.000000pt" viewBox="0 0 700.000000 700.000000"
 preserveAspectRatio="xMidYMid meet">
<metadata>
Created by potrace 1.11, written by Peter Selinger 2001-2013
</metadata>
<g transform="translate(0.000000,700.000000) scale(0.100000,-0.100000)"
fill="#000000" stroke="none">
<path d="M3285 6585 c-55 -13 -129 -36 -165 -51 -155 -66 -326 -205 -418 -341
-38 -56 -125 -223 -117 -223 2 0 -2 -15 -10 -34 -8 -18 -17 -46 -20 -62 -3
-16 -8 -42 -12 -59 -9 -37 -10 -286 -2 -340 17 -113 89 -288 161 -393 74 -109
236 -249 352 -306 l56 -28 -2 -720 -3 -721 -30 -10 c-101 -33 -299 -214 -500
-459 -137 -165 -196 -244 -272 -363 -25 -38 -53 -81 -63 -95 -27 -40 -89 -174
-96 -208 l-6 -32 -105 0 -104 0 7 38 c26 132 -43 269 -166 326 -43 20 -59 21
-410 21 l-365 0 -49 -25 c-113 -58 -171 -160 -163 -288 4 -70 3 -72 -20 -73
-12 -1 -26 -2 -30 -3 -5 -1 -26 -5 -47 -10 -126 -25 -242 -136 -281 -269 -14
-48 -15 -133 -13 -714 l3 -659 34 -66 c66 -132 181 -209 331 -224 14 -1 28 -2
31 -3 4 -1 12 -14 19 -31 20 -49 97 -117 156 -139 49 -19 77 -20 392 -20 186
0 354 4 373 9 61 17 124 65 165 126 l39 59 1569 0 1570 0 10 -26 c20 -48 75
-105 128 -135 l53 -29 357 -3 c337 -2 360 -1 411 18 58 22 137 93 157 141 7
16 15 29 19 30 3 0 23 2 44 5 66 6 119 25 171 58 86 55 125 106 174 228 8 19
11 229 12 677 0 635 0 652 -21 713 -36 107 -102 181 -209 232 l-65 31 -727 3
c-638 2 -728 5 -728 18 0 42 -88 211 -179 344 -274 400 -600 741 -763 800
l-28 10 0 718 0 719 53 27 c90 47 160 98 233 171 195 192 295 429 294 694 -2
386 -215 718 -567 883 -46 22 -91 41 -101 43 -9 2 -57 13 -106 24 -124 28
-280 26 -411 -4z"/>
</g>
</svg>
